<svg aria-hidden="true" style="position:absolute;width:0;height:0;overflow:hidden" xmlns="http://www.w3.org/2000/svg">
  <defs>
     <symbol id="icon-logo1" viewBox="0 0 55 32">
<path fill="#173d33" style="fill: var(--color2, #173d33)" d="M37.919 22.771c-0.115-0.273-9.583-18.774-9.738-19.029-0.327-0.772-0.812-1.47-1.425-2.049s-1.34-1.028-2.136-1.317-1.644-0.414-2.492-0.366c-0.847 0.048-1.675 0.268-2.433 0.646s-1.427 0.906-1.968 1.55c-0.541 0.645-0.942 1.392-1.177 2.197s-0.299 1.647-0.189 2.477c0.11 0.83 0.393 1.628 0.83 2.345 0.115 0.273 9.177 17.981 9.332 18.236 0.116 0.274 0.251 0.539 0.406 0.793 0.327 0.772 0.812 1.47 1.425 2.049s1.34 1.028 2.136 1.317 1.644 0.414 2.492 0.366c0.847-0.048 1.675-0.268 2.433-0.646s1.427-0.906 1.968-1.55 0.942-1.393 1.177-2.197c0.235-0.804 0.299-1.647 0.189-2.477s-0.393-1.628-0.83-2.345z"></path>
<path fill="#97d28b" style="fill: var(--color1, #97d28b)" d="M26.985 10.252c0.58-0.61 1.027-1.331 1.312-2.119s0.402-1.625 0.345-2.46c-0.058-0.835-0.289-1.648-0.68-2.391s-0.933-1.397-1.592-1.924c-0.659-0.527-1.421-0.914-2.239-1.137s-1.673-0.278-2.513-0.161c-0.84 0.117-1.646 0.404-2.369 0.842s-1.346 1.019-1.831 1.705c-0.204 0.214-15.577 18.897-15.748 19.139-0.58 0.61-1.027 1.331-1.312 2.119s-0.403 1.625-0.345 2.46 0.289 1.649 0.68 2.391c0.391 0.742 0.933 1.397 1.592 1.924s1.421 0.914 2.239 1.137c0.817 0.223 1.673 0.278 2.513 0.161s1.646-0.404 2.369-0.842c0.723-0.438 1.346-1.019 1.831-1.705 0.204-0.214 15.577-18.897 15.748-19.139z"></path>
<path fill="#97d28b" style="fill: var(--color1, #97d28b)" d="M53.439 10.252c0.58-0.61 1.027-1.331 1.312-2.119s0.403-1.625 0.345-2.46c-0.058-0.835-0.289-1.648-0.68-2.391s-0.933-1.397-1.592-1.924c-0.659-0.527-1.421-0.914-2.239-1.137s-1.673-0.278-2.513-0.161c-0.84 0.117-1.646 0.404-2.369 0.842s-1.346 1.019-1.831 1.705c-0.204 0.214-15.577 18.897-15.748 19.138-0.58 0.61-1.027 1.332-1.312 2.119s-0.403 1.625-0.345 2.46c0.058 0.834 0.289 1.648 0.68 2.391s0.933 1.397 1.592 1.924c0.659 0.527 1.421 0.914 2.239 1.137s1.673 0.278 2.513 0.161c0.84-0.117 1.646-0.404 2.369-0.842s1.346-1.019 1.831-1.705c0.204-0.214 15.577-18.897 15.748-19.139z"></path>
</symbol>
<symbol id="icon-Group-logo" viewBox="0 0 215 32">
<path fill="#97d28b" style="fill: var(--color1, #97d28b)" d="M170.352 17.712c-0.874 0-1.538-0.275-1.992-0.824s-0.68-1.264-0.68-2.144c0-0.405 0.050-0.781 0.152-1.128 0.106-0.352 0.262-0.667 0.464-0.944 0.208-0.283 0.486-0.504 0.832-0.664s0.744-0.24 1.192-0.24c0.614 0 1.114 0.144 1.504 0.432 0.39 0.283 0.656 0.693 0.8 1.232l-0.728 0.152c-0.24-0.763-0.762-1.144-1.568-1.144-0.602 0-1.072 0.205-1.408 0.616s-0.504 0.981-0.504 1.712c0 0.736 0.17 1.304 0.512 1.704 0.342 0.395 0.822 0.592 1.44 0.592 0.518 0 0.92-0.128 1.208-0.384 0.294-0.256 0.44-0.565 0.44-0.928v-0.6h-1.592v-0.608h2.288v1.088c0 0.592-0.206 1.088-0.616 1.488-0.41 0.395-0.992 0.592-1.744 0.592zM173.751 17.6v-5.712h2.096c0.603 0 1.075 0.147 1.416 0.44 0.342 0.288 0.512 0.691 0.512 1.208 0 0.416-0.114 0.763-0.344 1.040-0.229 0.272-0.554 0.451-0.976 0.536l1.392 2.488h-0.848l-1.264-2.384h-1.248v2.384h-0.736zM174.487 14.552h1.336c0.379 0 0.672-0.085 0.88-0.256 0.214-0.171 0.32-0.408 0.32-0.712 0-0.699-0.405-1.048-1.216-1.048h-1.32v2.016zM178.814 17.6v-5.712h3.856v0.648h-3.12v1.848h2.584v0.648h-2.584v1.92h3.128v0.648h-3.864zM183.65 17.6v-5.712h3.856v0.648h-3.12v1.848h2.584v0.648h-2.584v1.92h3.128v0.648h-3.864zM188.486 17.6v-5.712h0.888l2.624 3.912 0.432 0.688h0.080l-0.008-1.096v-3.504h0.712v5.712h-0.848l-2.536-3.752-0.552-0.848h-0.072l0.008 1.088v3.512h-0.728z"></path>
<path fill="#173d33" style="fill: var(--color2, #173d33)" d="M194.597 17.6v-5.712h3.856v0.648h-3.12v1.848h2.584v0.648h-2.584v1.92h3.128v0.648h-3.864zM199.433 17.6v-5.712h2.096c0.602 0 1.074 0.147 1.416 0.44 0.342 0.288 0.512 0.691 0.512 1.208 0 0.416-0.114 0.763-0.344 1.040-0.23 0.272-0.554 0.451-0.976 0.536l1.392 2.488h-0.848l-1.264-2.384h-1.248v2.384h-0.736zM200.169 14.552h1.336c0.378 0 0.672-0.085 0.88-0.256 0.214-0.171 0.32-0.408 0.32-0.712 0-0.699-0.406-1.048-1.216-1.048h-1.32v2.016zM206.799 17.712c-0.874 0-1.538-0.275-1.992-0.824s-0.68-1.264-0.68-2.144c0-0.405 0.051-0.781 0.152-1.128 0.107-0.352 0.262-0.667 0.464-0.944 0.208-0.283 0.486-0.504 0.832-0.664s0.744-0.24 1.192-0.24c0.614 0 1.115 0.144 1.504 0.432 0.39 0.283 0.656 0.693 0.8 1.232l-0.728 0.152c-0.24-0.763-0.762-1.144-1.568-1.144-0.602 0-1.072 0.205-1.408 0.616s-0.504 0.981-0.504 1.712c0 0.736 0.171 1.304 0.512 1.704 0.342 0.395 0.822 0.592 1.44 0.592 0.518 0 0.92-0.128 1.208-0.384 0.294-0.256 0.44-0.565 0.44-0.928v-0.6h-1.592v-0.608h2.288v1.088c0 0.592-0.205 1.088-0.616 1.488-0.41 0.395-0.992 0.592-1.744 0.592zM211.506 17.6v-2.024l-2.056-3.688h0.856l1.56 2.968 1.568-2.968h0.848l-2.040 3.688v2.024h-0.736zM168.048 24.8v-5.712h3.744v0.648h-3.008v1.984h2.496v0.656h-2.496v2.424h-0.736zM174.845 24.912c-0.848 0-1.512-0.285-1.992-0.856-0.474-0.571-0.712-1.277-0.712-2.12s0.243-1.547 0.728-2.112c0.491-0.571 1.15-0.856 1.976-0.856s1.486 0.285 1.976 0.856c0.491 0.571 0.736 1.275 0.736 2.112 0 0.843-0.24 1.549-0.72 2.12-0.474 0.571-1.138 0.856-1.992 0.856zM174.845 24.256c0.598 0 1.072-0.211 1.424-0.632 0.358-0.421 0.536-0.984 0.536-1.688 0-0.699-0.178-1.259-0.536-1.68-0.357-0.432-0.832-0.648-1.424-0.648-0.581 0-1.053 0.216-1.416 0.648-0.357 0.421-0.536 0.981-0.536 1.68 0 0.704 0.176 1.267 0.528 1.688 0.358 0.421 0.832 0.632 1.424 0.632zM178.549 24.8v-5.712h2.096c0.602 0 1.074 0.147 1.416 0.44 0.341 0.288 0.512 0.691 0.512 1.208 0 0.416-0.115 0.763-0.344 1.040-0.23 0.272-0.555 0.451-0.976 0.536l1.392 2.488h-0.848l-1.264-2.384h-1.248v2.384h-0.736zM179.285 21.752h1.336c0.378 0 0.672-0.085 0.88-0.256 0.213-0.171 0.32-0.408 0.32-0.712 0-0.699-0.406-1.048-1.216-1.048h-1.32v2.016zM185.448 24.8v-5.712h0.736v5.056h3v0.656h-3.736zM189.94 24.8v-5.712h0.736v5.712h-0.736zM192.058 24.8v-5.712h3.744v0.648h-3.008v1.984h2.496v0.656h-2.496v2.424h-0.736zM196.613 24.8v-5.712h3.856v0.648h-3.12v1.848h2.584v0.648h-2.584v1.92h3.128v0.648h-3.864z"></path>
<path  d="M35.788 25.143c-4.118 0-7.022-2.904-7.022-6.864s2.904-6.864 7.022-6.864c4.118 0 6.97 2.904 6.97 6.864v1.030h-10.982c0.396 2.086 1.98 3.221 4.013 3.221 1.531 0 2.64-0.449 3.353-1.426h3.089c-1.003 2.455-3.379 4.039-6.442 4.039zM31.854 16.906h7.894c-0.502-1.901-2.059-2.878-3.96-2.878-1.954 0-3.432 1.003-3.934 2.878zM50.252 25.143c-4.118 0-7.022-2.904-7.022-6.864s2.904-6.864 7.022-6.864c3.511 0 6.098 2.112 6.758 5.148h-2.878c-0.607-1.505-2.006-2.508-3.881-2.508-2.482 0-4.145 1.769-4.145 4.224s1.663 4.224 4.145 4.224c1.874 0 3.274-1.003 3.881-2.508h2.878c-0.66 3.036-3.247 5.148-6.758 5.148zM64.51 25.143c-4.118 0-7.022-2.904-7.022-6.864s2.904-6.864 7.022-6.864c4.118 0 7.022 2.904 7.022 6.864s-2.904 6.864-7.022 6.864zM64.51 22.503c2.482 0 4.118-1.769 4.118-4.224s-1.637-4.224-4.118-4.224c-2.482 0-4.145 1.769-4.145 4.224s1.663 4.224 4.145 4.224zM77.495 25.143c-3.3 0-5.386-1.769-5.465-4.171h2.878c0.053 0.977 0.924 1.637 2.587 1.637 1.742 0 2.561-0.739 2.561-1.637 0-1.109-1.241-1.241-2.772-1.452-2.112-0.264-4.99-0.66-4.99-3.749 0-2.614 2.033-4.356 5.174-4.356s5.095 1.795 5.148 4.066h-2.825c-0.079-0.898-0.898-1.531-2.297-1.531-1.505 0-2.323 0.713-2.323 1.61 0 1.109 1.294 1.241 2.772 1.452 2.006 0.264 4.99 0.634 4.99 3.749 0 2.64-2.138 4.382-5.439 4.382zM90.474 25.143c-4.118 0-7.022-2.904-7.022-6.864s2.904-6.864 7.022-6.864c4.118 0 7.022 2.904 7.022 6.864s-2.904 6.864-7.022 6.864zM90.474 22.503c2.482 0 4.118-1.769 4.118-4.224s-1.637-4.224-4.118-4.224c-2.482 0-4.145 1.769-4.145 4.224s1.663 4.224 4.145 4.224zM98.945 24.8v-18.744h2.851v18.744h-2.851zM110.25 25.143c-3.854 0-6.442-2.218-6.442-6.6v-6.785h2.851v6.785c0 2.64 1.426 3.96 3.59 3.96s3.59-1.32 3.59-3.96v-6.785h2.851v6.785c0 4.356-2.587 6.6-6.442 6.6zM123.5 25.143c-3.142 0-5.28-1.742-5.28-5.333v-12.672h2.851v4.62h6.943v2.587h-6.943v5.465c0 1.901 0.977 2.693 2.429 2.693s2.455-0.766 2.455-2.693v-0.317h2.825v0.317c0 3.59-2.138 5.333-5.28 5.333zM131.672 9.91c-1.109 0-1.927-0.845-1.927-1.954s0.818-1.954 1.927-1.954c1.109 0 1.927 0.845 1.927 1.954s-0.818 1.954-1.927 1.954zM130.22 24.8v-13.042h2.851v13.042h-2.851zM141.552 25.143c-4.118 0-7.022-2.904-7.022-6.864s2.904-6.864 7.022-6.864c4.118 0 7.022 2.904 7.022 6.864s-2.904 6.864-7.022 6.864zM141.552 22.503c2.482 0 4.118-1.769 4.118-4.224s-1.637-4.224-4.118-4.224c-2.482 0-4.145 1.769-4.145 4.224s1.663 4.224 4.145 4.224zM149.574 24.8v-6.785c0-4.356 2.587-6.6 6.442-6.6s6.442 2.218 6.442 6.6v6.785h-2.851v-6.785c0-2.64-1.426-3.96-3.59-3.96s-3.59 1.32-3.59 3.96v6.785h-2.851z"></path>
<path fill="#173d33" style="fill: var(--color2, #173d33)" d="M17.064 21.447c-0.052-0.123-4.312-8.448-4.382-8.563-0.147-0.348-0.365-0.661-0.641-0.922s-0.603-0.462-0.961-0.593-0.74-0.186-1.121-0.165c-0.381 0.022-0.754 0.121-1.095 0.291s-0.642 0.408-0.886 0.698c-0.244 0.29-0.424 0.627-0.529 0.988s-0.135 0.741-0.085 1.115c0.050 0.373 0.177 0.733 0.374 1.055 0.052 0.123 4.13 8.092 4.2 8.206 0.052 0.123 0.113 0.242 0.183 0.357 0.147 0.348 0.365 0.661 0.641 0.922s0.603 0.462 0.961 0.593 0.74 0.186 1.121 0.165c0.381-0.022 0.754-0.121 1.095-0.291s0.642-0.408 0.886-0.698 0.424-0.627 0.53-0.988c0.106-0.362 0.135-0.741 0.085-1.115s-0.177-0.733-0.374-1.055z"></path>
<path fill="#97d28b" style="fill: var(--color1, #97d28b)" d="M12.143 15.814c0.261-0.274 0.462-0.599 0.591-0.954s0.181-0.731 0.155-1.107c-0.026-0.376-0.13-0.742-0.306-1.076s-0.42-0.629-0.716-0.866c-0.297-0.237-0.64-0.411-1.007-0.512s-0.753-0.125-1.131-0.072c-0.378 0.053-0.741 0.182-1.066 0.379s-0.606 0.458-0.824 0.767c-0.092 0.096-7.010 8.504-7.086 8.612-0.261 0.274-0.462 0.599-0.591 0.954s-0.181 0.731-0.155 1.107 0.13 0.742 0.306 1.076c0.176 0.334 0.42 0.629 0.716 0.866s0.639 0.411 1.007 0.512c0.368 0.1 0.753 0.125 1.131 0.072s0.741-0.182 1.066-0.379c0.325-0.197 0.606-0.458 0.824-0.767 0.092-0.096 7.010-8.504 7.086-8.612z"></path>
<path fill="#97d28b" style="fill: var(--color1, #97d28b)" d="M24.048 15.813c0.261-0.275 0.462-0.599 0.591-0.954s0.181-0.731 0.155-1.107c-0.026-0.376-0.13-0.742-0.306-1.076s-0.42-0.629-0.716-0.866c-0.297-0.237-0.64-0.411-1.007-0.512s-0.753-0.125-1.131-0.072c-0.378 0.053-0.741 0.182-1.066 0.379s-0.606 0.458-0.824 0.767c-0.092 0.096-7.010 8.504-7.086 8.612-0.261 0.275-0.462 0.599-0.59 0.954s-0.181 0.731-0.155 1.107c0.026 0.376 0.13 0.742 0.306 1.076s0.42 0.629 0.716 0.866c0.297 0.237 0.64 0.411 1.007 0.512s0.753 0.125 1.131 0.072c0.378-0.053 0.741-0.182 1.066-0.379s0.606-0.458 0.824-0.767c0.092-0.096 7.010-8.504 7.086-8.612z"></path>
</symbol>
<symbol id="icon-mail" viewBox="0 0 32 32">
<path d="M26.667 5.333h-21.333c-1.467 0-2.652 1.2-2.652 2.667l-0.014 16c0 1.467 1.2 2.667 2.667 2.667h21.333c1.467 0 2.667-1.2 2.667-2.667v-16c0-1.467-1.2-2.667-2.667-2.667zM26.133 11.001l-9.426 5.892c-0.201 0.126-0.446 0.2-0.708 0.2s-0.506-0.075-0.713-0.204l0.006 0.003-9.426-5.892c-0.336-0.201-0.557-0.562-0.557-0.975 0-0.625 0.507-1.132 1.132-1.132 0.233 0 0.449 0.070 0.629 0.19l-0.004-0.003 8.933 5.586 8.933-5.588c0.176-0.118 0.392-0.188 0.624-0.188 0.625 0 1.132 0.507 1.132 1.132 0 0.413-0.221 0.775-0.552 0.972l-0.005 0.003z"></path>
</symbol>
<symbol id="icon-arrow-right-up" viewBox="0 0 32 32">
<path d="M26.667 5.333h-21.333c-1.467 0-2.652 1.2-2.652 2.667l-0.014 16c0 1.467 1.2 2.667 2.667 2.667h21.333c1.467 0 2.667-1.2 2.667-2.667v-16c0-1.467-1.2-2.667-2.667-2.667zM26.133 11.001l-9.426 5.892c-0.201 0.126-0.446 0.2-0.708 0.2s-0.506-0.075-0.713-0.204l0.006 0.003-9.426-5.892c-0.336-0.201-0.557-0.562-0.557-0.975 0-0.625 0.507-1.132 1.132-1.132 0.233 0 0.449 0.070 0.629 0.19l-0.004-0.003 8.933 5.586 8.933-5.588c0.176-0.118 0.392-0.188 0.624-0.188 0.625 0 1.132 0.507 1.132 1.132 0 0.413-0.221 0.775-0.552 0.972l-0.005 0.003z"></path>
</symbol>
<symbol id="icon-arrow-right" viewBox="0 0 32 32">
<path d="M17.369 11.657c-0.094 0.045-0.17 0.117-0.219 0.205l-0.001 0.002c-0.149 0.329-0.161 0.313 1.552 2.031l1.615 1.619h-9.951l-0.161 0.143c-0.214 0.192-0.225 0.478-0.025 0.678l0.136 0.136 10 0.027-1.614 1.618c-1.328 1.333-1.614 1.645-1.614 1.761 0 0.388 0.353 0.632 0.686 0.474 0.254-0.12 4.158-4.056 4.183-4.217 0.012-0.071 0.013-0.187 0.002-0.259-0.022-0.157-3.925-4.094-4.178-4.213-0.197-0.094-0.209-0.094-0.409-0.007z"></path>
</symbol>
<symbol id="icon-menu" viewBox="0 0 32 32">
<path d="M6.4 11.734v-2.134h19.2v2.134h-19.2zM6.4 17.066h19.2v-2.133h-19.2v2.133zM6.4 22.4h19.2v-2.134h-19.2v2.134z"></path>
</symbol>
   </defs>
</svg>

