<svg aria-hidden="true" style="position:absolute;width:0;height:0;overflow:hidden" xmlns="http://www.w3.org/2000/svg">
  <defs>
     <symbol id="icon-logo1" viewBox="0 0 55 32">
<path fill="#173d33" style="fill: var(--color2, #173d33)" d="M37.919 22.771c-0.115-0.273-9.583-18.774-9.738-19.029-0.327-0.772-0.812-1.47-1.425-2.049s-1.34-1.028-2.136-1.317-1.644-0.414-2.492-0.366c-0.847 0.048-1.675 0.268-2.433 0.646s-1.427 0.906-1.968 1.55c-0.541 0.645-0.942 1.392-1.177 2.197s-0.299 1.647-0.189 2.477c0.11 0.83 0.393 1.628 0.83 2.345 0.115 0.273 9.177 17.981 9.332 18.236 0.116 0.274 0.251 0.539 0.406 0.793 0.327 0.772 0.812 1.47 1.425 2.049s1.34 1.028 2.136 1.317 1.644 0.414 2.492 0.366c0.847-0.048 1.675-0.268 2.433-0.646s1.427-0.906 1.968-1.55 0.942-1.393 1.177-2.197c0.235-0.804 0.299-1.647 0.189-2.477s-0.393-1.628-0.83-2.345z"></path>
<path fill="#97d28b" style="fill: var(--color1, #97d28b)" d="M26.985 10.252c0.58-0.61 1.027-1.331 1.312-2.119s0.402-1.625 0.345-2.46c-0.058-0.835-0.289-1.648-0.68-2.391s-0.933-1.397-1.592-1.924c-0.659-0.527-1.421-0.914-2.239-1.137s-1.673-0.278-2.513-0.161c-0.84 0.117-1.646 0.404-2.369 0.842s-1.346 1.019-1.831 1.705c-0.204 0.214-15.577 18.897-15.748 19.139-0.58 0.61-1.027 1.331-1.312 2.119s-0.403 1.625-0.345 2.46 0.289 1.649 0.68 2.391c0.391 0.742 0.933 1.397 1.592 1.924s1.421 0.914 2.239 1.137c0.817 0.223 1.673 0.278 2.513 0.161s1.646-0.404 2.369-0.842c0.723-0.438 1.346-1.019 1.831-1.705 0.204-0.214 15.577-18.897 15.748-19.139z"></path>
<path fill="#97d28b" style="fill: var(--color1, #97d28b)" d="M53.439 10.252c0.58-0.61 1.027-1.331 1.312-2.119s0.403-1.625 0.345-2.46c-0.058-0.835-0.289-1.648-0.68-2.391s-0.933-1.397-1.592-1.924c-0.659-0.527-1.421-0.914-2.239-1.137s-1.673-0.278-2.513-0.161c-0.84 0.117-1.646 0.404-2.369 0.842s-1.346 1.019-1.831 1.705c-0.204 0.214-15.577 18.897-15.748 19.138-0.58 0.61-1.027 1.332-1.312 2.119s-0.403 1.625-0.345 2.46c0.058 0.834 0.289 1.648 0.68 2.391s0.933 1.397 1.592 1.924c0.659 0.527 1.421 0.914 2.239 1.137s1.673 0.278 2.513 0.161c0.84-0.117 1.646-0.404 2.369-0.842s1.346-1.019 1.831-1.705c0.204-0.214 15.577-18.897 15.748-19.139z"></path>
</symbol>
<symbol id="icon-Group-logo" viewBox="0 0 215 32">
<path fill="#97d28b" style="fill: var(--color1, #97d28b)" d="M170.352 17.712c-0.874 0-1.538-0.275-1.992-0.824s-0.68-1.264-0.68-2.144c0-0.405 0.050-0.781 0.152-1.128 0.106-0.352 0.262-0.667 0.464-0.944 0.208-0.283 0.486-0.504 0.832-0.664s0.744-0.24 1.192-0.24c0.614 0 1.114 0.144 1.504 0.432 0.39 0.283 0.656 0.693 0.8 1.232l-0.728 0.152c-0.24-0.763-0.762-1.144-1.568-1.144-0.602 0-1.072 0.205-1.408 0.616s-0.504 0.981-0.504 1.712c0 0.736 0.17 1.304 0.512 1.704 0.342 0.395 0.822 0.592 1.44 0.592 0.518 0 0.92-0.128 1.208-0.384 0.294-0.256 0.44-0.565 0.44-0.928v-0.6h-1.592v-0.608h2.288v1.088c0 0.592-0.206 1.088-0.616 1.488-0.41 0.395-0.992 0.592-1.744 0.592zM173.751 17.6v-5.712h2.096c0.603 0 1.075 0.147 1.416 0.44 0.342 0.288 0.512 0.691 0.512 1.208 0 0.416-0.114 0.763-0.344 1.040-0.229 0.272-0.554 0.451-0.976 0.536l1.392 2.488h-0.848l-1.264-2.384h-1.248v2.384h-0.736zM174.487 14.552h1.336c0.379 0 0.672-0.085 0.88-0.256 0.214-0.171 0.32-0.408 0.32-0.712 0-0.699-0.405-1.048-1.216-1.048h-1.32v2.016zM178.814 17.6v-5.712h3.856v0.648h-3.12v1.848h2.584v0.648h-2.584v1.92h3.128v0.648h-3.864zM183.65 17.6v-5.712h3.856v0.648h-3.12v1.848h2.584v0.648h-2.584v1.92h3.128v0.648h-3.864zM188.486 17.6v-5.712h0.888l2.624 3.912 0.432 0.688h0.080l-0.008-1.096v-3.504h0.712v5.712h-0.848l-2.536-3.752-0.552-0.848h-0.072l0.008 1.088v3.512h-0.728z"></path>
<path fill="#173d33" style="fill: var(--color2, #173d33)" d="M194.597 17.6v-5.712h3.856v0.648h-3.12v1.848h2.584v0.648h-2.584v1.92h3.128v0.648h-3.864zM199.433 17.6v-5.712h2.096c0.602 0 1.074 0.147 1.416 0.44 0.342 0.288 0.512 0.691 0.512 1.208 0 0.416-0.114 0.763-0.344 1.040-0.23 0.272-0.554 0.451-0.976 0.536l1.392 2.488h-0.848l-1.264-2.384h-1.248v2.384h-0.736zM200.169 14.552h1.336c0.378 0 0.672-0.085 0.88-0.256 0.214-0.171 0.32-0.408 0.32-0.712 0-0.699-0.406-1.048-1.216-1.048h-1.32v2.016zM206.799 17.712c-0.874 0-1.538-0.275-1.992-0.824s-0.68-1.264-0.68-2.144c0-0.405 0.051-0.781 0.152-1.128 0.107-0.352 0.262-0.667 0.464-0.944 0.208-0.283 0.486-0.504 0.832-0.664s0.744-0.24 1.192-0.24c0.614 0 1.115 0.144 1.504 0.432 0.39 0.283 0.656 0.693 0.8 1.232l-0.728 0.152c-0.24-0.763-0.762-1.144-1.568-1.144-0.602 0-1.072 0.205-1.408 0.616s-0.504 0.981-0.504 1.712c0 0.736 0.171 1.304 0.512 1.704 0.342 0.395 0.822 0.592 1.44 0.592 0.518 0 0.92-0.128 1.208-0.384 0.294-0.256 0.44-0.565 0.44-0.928v-0.6h-1.592v-0.608h2.288v1.088c0 0.592-0.205 1.088-0.616 1.488-0.41 0.395-0.992 0.592-1.744 0.592zM211.506 17.6v-2.024l-2.056-3.688h0.856l1.56 2.968 1.568-2.968h0.848l-2.040 3.688v2.024h-0.736zM168.048 24.8v-5.712h3.744v0.648h-3.008v1.984h2.496v0.656h-2.496v2.424h-0.736zM174.845 24.912c-0.848 0-1.512-0.285-1.992-0.856-0.474-0.571-0.712-1.277-0.712-2.12s0.243-1.547 0.728-2.112c0.491-0.571 1.15-0.856 1.976-0.856s1.486 0.285 1.976 0.856c0.491 0.571 0.736 1.275 0.736 2.112 0 0.843-0.24 1.549-0.72 2.12-0.474 0.571-1.138 0.856-1.992 0.856zM174.845 24.256c0.598 0 1.072-0.211 1.424-0.632 0.358-0.421 0.536-0.984 0.536-1.688 0-0.699-0.178-1.259-0.536-1.68-0.357-0.432-0.832-0.648-1.424-0.648-0.581 0-1.053 0.216-1.416 0.648-0.357 0.421-0.536 0.981-0.536 1.68 0 0.704 0.176 1.267 0.528 1.688 0.358 0.421 0.832 0.632 1.424 0.632zM178.549 24.8v-5.712h2.096c0.602 0 1.074 0.147 1.416 0.44 0.341 0.288 0.512 0.691 0.512 1.208 0 0.416-0.115 0.763-0.344 1.040-0.23 0.272-0.555 0.451-0.976 0.536l1.392 2.488h-0.848l-1.264-2.384h-1.248v2.384h-0.736zM179.285 21.752h1.336c0.378 0 0.672-0.085 0.88-0.256 0.213-0.171 0.32-0.408 0.32-0.712 0-0.699-0.406-1.048-1.216-1.048h-1.32v2.016zM185.448 24.8v-5.712h0.736v5.056h3v0.656h-3.736zM189.94 24.8v-5.712h0.736v5.712h-0.736zM192.058 24.8v-5.712h3.744v0.648h-3.008v1.984h2.496v0.656h-2.496v2.424h-0.736zM196.613 24.8v-5.712h3.856v0.648h-3.12v1.848h2.584v0.648h-2.584v1.92h3.128v0.648h-3.864z"></path>
<path  d="M35.788 25.143c-4.118 0-7.022-2.904-7.022-6.864s2.904-6.864 7.022-6.864c4.118 0 6.97 2.904 6.97 6.864v1.030h-10.982c0.396 2.086 1.98 3.221 4.013 3.221 1.531 0 2.64-0.449 3.353-1.426h3.089c-1.003 2.455-3.379 4.039-6.442 4.039zM31.854 16.906h7.894c-0.502-1.901-2.059-2.878-3.96-2.878-1.954 0-3.432 1.003-3.934 2.878zM50.252 25.143c-4.118 0-7.022-2.904-7.022-6.864s2.904-6.864 7.022-6.864c3.511 0 6.098 2.112 6.758 5.148h-2.878c-0.607-1.505-2.006-2.508-3.881-2.508-2.482 0-4.145 1.769-4.145 4.224s1.663 4.224 4.145 4.224c1.874 0 3.274-1.003 3.881-2.508h2.878c-0.66 3.036-3.247 5.148-6.758 5.148zM64.51 25.143c-4.118 0-7.022-2.904-7.022-6.864s2.904-6.864 7.022-6.864c4.118 0 7.022 2.904 7.022 6.864s-2.904 6.864-7.022 6.864zM64.51 22.503c2.482 0 4.118-1.769 4.118-4.224s-1.637-4.224-4.118-4.224c-2.482 0-4.145 1.769-4.145 4.224s1.663 4.224 4.145 4.224zM77.495 25.143c-3.3 0-5.386-1.769-5.465-4.171h2.878c0.053 0.977 0.924 1.637 2.587 1.637 1.742 0 2.561-0.739 2.561-1.637 0-1.109-1.241-1.241-2.772-1.452-2.112-0.264-4.99-0.66-4.99-3.749 0-2.614 2.033-4.356 5.174-4.356s5.095 1.795 5.148 4.066h-2.825c-0.079-0.898-0.898-1.531-2.297-1.531-1.505 0-2.323 0.713-2.323 1.61 0 1.109 1.294 1.241 2.772 1.452 2.006 0.264 4.99 0.634 4.99 3.749 0 2.64-2.138 4.382-5.439 4.382zM90.474 25.143c-4.118 0-7.022-2.904-7.022-6.864s2.904-6.864 7.022-6.864c4.118 0 7.022 2.904 7.022 6.864s-2.904 6.864-7.022 6.864zM90.474 22.503c2.482 0 4.118-1.769 4.118-4.224s-1.637-4.224-4.118-4.224c-2.482 0-4.145 1.769-4.145 4.224s1.663 4.224 4.145 4.224zM98.945 24.8v-18.744h2.851v18.744h-2.851zM110.25 25.143c-3.854 0-6.442-2.218-6.442-6.6v-6.785h2.851v6.785c0 2.64 1.426 3.96 3.59 3.96s3.59-1.32 3.59-3.96v-6.785h2.851v6.785c0 4.356-2.587 6.6-6.442 6.6zM123.5 25.143c-3.142 0-5.28-1.742-5.28-5.333v-12.672h2.851v4.62h6.943v2.587h-6.943v5.465c0 1.901 0.977 2.693 2.429 2.693s2.455-0.766 2.455-2.693v-0.317h2.825v0.317c0 3.59-2.138 5.333-5.28 5.333zM131.672 9.91c-1.109 0-1.927-0.845-1.927-1.954s0.818-1.954 1.927-1.954c1.109 0 1.927 0.845 1.927 1.954s-0.818 1.954-1.927 1.954zM130.22 24.8v-13.042h2.851v13.042h-2.851zM141.552 25.143c-4.118 0-7.022-2.904-7.022-6.864s2.904-6.864 7.022-6.864c4.118 0 7.022 2.904 7.022 6.864s-2.904 6.864-7.022 6.864zM141.552 22.503c2.482 0 4.118-1.769 4.118-4.224s-1.637-4.224-4.118-4.224c-2.482 0-4.145 1.769-4.145 4.224s1.663 4.224 4.145 4.224zM149.574 24.8v-6.785c0-4.356 2.587-6.6 6.442-6.6s6.442 2.218 6.442 6.6v6.785h-2.851v-6.785c0-2.64-1.426-3.96-3.59-3.96s-3.59 1.32-3.59 3.96v6.785h-2.851z"></path>
<path fill="#173d33" style="fill: var(--color2, #173d33)" d="M17.064 21.447c-0.052-0.123-4.312-8.448-4.382-8.563-0.147-0.348-0.365-0.661-0.641-0.922s-0.603-0.462-0.961-0.593-0.74-0.186-1.121-0.165c-0.381 0.022-0.754 0.121-1.095 0.291s-0.642 0.408-0.886 0.698c-0.244 0.29-0.424 0.627-0.529 0.988s-0.135 0.741-0.085 1.115c0.050 0.373 0.177 0.733 0.374 1.055 0.052 0.123 4.13 8.092 4.2 8.206 0.052 0.123 0.113 0.242 0.183 0.357 0.147 0.348 0.365 0.661 0.641 0.922s0.603 0.462 0.961 0.593 0.74 0.186 1.121 0.165c0.381-0.022 0.754-0.121 1.095-0.291s0.642-0.408 0.886-0.698 0.424-0.627 0.53-0.988c0.106-0.362 0.135-0.741 0.085-1.115s-0.177-0.733-0.374-1.055z"></path>
<path fill="#97d28b" style="fill: var(--color1, #97d28b)" d="M12.143 15.814c0.261-0.274 0.462-0.599 0.591-0.954s0.181-0.731 0.155-1.107c-0.026-0.376-0.13-0.742-0.306-1.076s-0.42-0.629-0.716-0.866c-0.297-0.237-0.64-0.411-1.007-0.512s-0.753-0.125-1.131-0.072c-0.378 0.053-0.741 0.182-1.066 0.379s-0.606 0.458-0.824 0.767c-0.092 0.096-7.010 8.504-7.086 8.612-0.261 0.274-0.462 0.599-0.591 0.954s-0.181 0.731-0.155 1.107 0.13 0.742 0.306 1.076c0.176 0.334 0.42 0.629 0.716 0.866s0.639 0.411 1.007 0.512c0.368 0.1 0.753 0.125 1.131 0.072s0.741-0.182 1.066-0.379c0.325-0.197 0.606-0.458 0.824-0.767 0.092-0.096 7.010-8.504 7.086-8.612z"></path>
<path fill="#97d28b" style="fill: var(--color1, #97d28b)" d="M24.048 15.813c0.261-0.275 0.462-0.599 0.591-0.954s0.181-0.731 0.155-1.107c-0.026-0.376-0.13-0.742-0.306-1.076s-0.42-0.629-0.716-0.866c-0.297-0.237-0.64-0.411-1.007-0.512s-0.753-0.125-1.131-0.072c-0.378 0.053-0.741 0.182-1.066 0.379s-0.606 0.458-0.824 0.767c-0.092 0.096-7.010 8.504-7.086 8.612-0.261 0.275-0.462 0.599-0.59 0.954s-0.181 0.731-0.155 1.107c0.026 0.376 0.13 0.742 0.306 1.076s0.42 0.629 0.716 0.866c0.297 0.237 0.64 0.411 1.007 0.512s0.753 0.125 1.131 0.072c0.378-0.053 0.741-0.182 1.066-0.379s0.606-0.458 0.824-0.767c0.092-0.096 7.010-8.504 7.086-8.612z"></path>
</symbol>
<symbol id="icon-mail" viewBox="0 0 32 32">
<path d="M26.667 5.333h-21.333c-1.467 0-2.652 1.2-2.652 2.667l-0.014 16c0 1.467 1.2 2.667 2.667 2.667h21.333c1.467 0 2.667-1.2 2.667-2.667v-16c0-1.467-1.2-2.667-2.667-2.667zM26.133 11.001l-9.426 5.892c-0.201 0.126-0.446 0.2-0.708 0.2s-0.506-0.075-0.713-0.204l0.006 0.003-9.426-5.892c-0.336-0.201-0.557-0.562-0.557-0.975 0-0.625 0.507-1.132 1.132-1.132 0.233 0 0.449 0.070 0.629 0.19l-0.004-0.003 8.933 5.586 8.933-5.588c0.176-0.118 0.392-0.188 0.624-0.188 0.625 0 1.132 0.507 1.132 1.132 0 0.413-0.221 0.775-0.552 0.972l-0.005 0.003z"></path>
</symbol>
<symbol id="icon-arrow-right-up" viewBox="0 0 32 32">
<path d="M12.16 7.258c-0.271 0.159-0.39 0.349-0.416 0.663-0.027 0.334 0.069 0.545 0.345 0.757l0.195 0.149 9.635 0.054-7.312 7.306c-4.296 4.294-7.343 7.378-7.386 7.479-0.045 0.099-0.070 0.216-0.070 0.338 0 0.467 0.379 0.846 0.846 0.846 0.122 0 0.238-0.026 0.343-0.073l-0.005 0.002c0.101-0.043 3.185-3.090 7.479-7.386l7.306-7.312 0.026 4.817 0.027 4.818 0.149 0.195c0.211 0.277 0.422 0.373 0.758 0.345 0.328-0.027 0.563-0.177 0.688-0.438 0.079-0.168 0.086-0.72 0.073-6.175-0.014-5.896-0.016-5.992-0.121-6.134-0.085-0.099-0.184-0.183-0.295-0.25l-0.005-0.003c-0.193-0.11-0.226-0.111-6.134-0.11-5.891 0.001-5.941 0.002-6.126 0.111z"></path>
</symbol>
<symbol id="icon-arrow-right" viewBox="0 0 32 32">
<path d="M14.987 0.032c-1.565 0.135-2.839 0.39-4.122 0.826-5.060 1.717-8.997 5.935-10.33 11.067-0.376 1.448-0.502 2.475-0.502 4.076 0 1.273 0.049 1.859 0.241 2.901 1.125 6.093 5.689 11.008 11.672 12.571 1.213 0.33 2.606 0.519 4.043 0.519 4.419 0 8.42-1.79 11.318-4.684l-0 0c3.234-3.234 4.949-7.752 4.653-12.253-0.219-3.323-1.285-6.168-3.312-8.84-0.511-0.674-2.115-2.288-2.781-2.799-2.394-1.837-4.905-2.881-7.893-3.283-0.589-0.080-2.488-0.143-2.987-0.1zM18.213 0.64c3.411 0.513 6.333 1.982 8.749 4.398 2.422 2.422 3.868 5.302 4.405 8.775 0.101 0.656 0.12 0.988 0.12 2.187s-0.018 1.531-0.12 2.187c-0.539 3.483-1.974 6.342-4.406 8.774-2.52 2.52-5.482 3.964-9.147 4.462-0.298 0.040-1.045 0.068-1.813 0.068-1.654 0-2.668-0.13-4.121-0.528-3.989-1.093-7.41-3.781-9.439-7.416-0.923-1.654-1.497-3.357-1.807-5.36-0.101-0.656-0.12-0.988-0.12-2.187s0.018-1.531 0.12-2.187c0.538-3.476 1.981-6.351 4.405-8.775 2.616-2.616 5.873-4.143 9.614-4.506 0.796-0.077 2.719-0.018 3.561 0.108zM17.524 11.337c-0.082 0.081-0.107 0.18-0.087 0.343 0.006 0.044 0.879 0.95 1.939 2.013l1.93 1.934h-5.743c-3.63 0-5.793 0.019-5.881 0.052-0.289 0.11-0.263 0.58 0.035 0.66 0.067 0.018 2.702 0.033 5.855 0.033l5.733 0.001-1.93 1.934c-1.061 1.063-1.934 1.969-1.939 2.013-0.034 0.273 0.088 0.427 0.338 0.427 0.15 0 0.405-0.237 2.4-2.227 1.228-1.224 2.266-2.291 2.308-2.37 0.053-0.1 0.062-0.181 0.028-0.267-0.027-0.068-1.066-1.137-2.308-2.376-2.020-2.015-2.277-2.254-2.428-2.254-0.092 0-0.206 0.038-0.252 0.084z"></path>
</symbol>
<symbol id="icon-arrow-left" viewBox="0 0 32 32">
<path d="M14.987 0.032c-1.565 0.135-2.839 0.39-4.122 0.826-5.060 1.717-8.997 5.935-10.33 11.067-0.376 1.448-0.502 2.475-0.502 4.076 0 1.273 0.049 1.859 0.241 2.901 1.125 6.093 5.689 11.008 11.672 12.571 1.213 0.33 2.606 0.519 4.043 0.519 4.419 0 8.42-1.79 11.318-4.684l-0 0c2.894-2.889 4.684-6.884 4.684-11.296 0-0.955-0.084-1.891-0.245-2.8l0.014 0.096c-0.447-2.62-1.445-4.894-3.113-7.093-0.511-0.674-2.115-2.288-2.781-2.799-2.394-1.837-4.905-2.881-7.893-3.283-0.589-0.080-2.488-0.143-2.987-0.1zM18.213 0.64c3.411 0.513 6.333 1.982 8.749 4.398 2.422 2.422 3.868 5.302 4.405 8.775 0.101 0.656 0.12 0.988 0.12 2.187s-0.018 1.531-0.12 2.187c-0.539 3.483-1.974 6.342-4.406 8.774-2.52 2.52-5.482 3.964-9.147 4.462-0.298 0.040-1.045 0.068-1.813 0.068-1.654 0-2.668-0.13-4.121-0.528-3.989-1.093-7.41-3.781-9.439-7.416-0.923-1.654-1.497-3.357-1.807-5.36-0.101-0.656-0.12-0.988-0.12-2.187s0.018-1.531 0.12-2.187c0.538-3.476 1.981-6.351 4.405-8.775 2.616-2.616 5.873-4.143 9.614-4.506 0.796-0.077 2.719-0.018 3.561 0.108zM11.766 13.542c-2.056 2.054-2.29 2.305-2.29 2.457s0.233 0.402 2.262 2.433c1.244 1.245 2.316 2.278 2.383 2.295 0.285 0.073 0.499-0.122 0.447-0.407-0.008-0.044-0.883-0.95-1.944-2.013l-1.93-1.934 5.733-0.001c3.153 0 5.788-0.015 5.855-0.033s0.158-0.102 0.201-0.186c0.070-0.136 0.070-0.171 0-0.306-0.044-0.084-0.134-0.168-0.201-0.186s-2.702-0.033-5.855-0.033l-5.733-0.001 1.93-1.934c1.061-1.063 1.934-1.969 1.939-2.013 0.034-0.273-0.088-0.427-0.339-0.427-0.15 0-0.409 0.241-2.458 2.288z"></path>
</symbol>
<symbol id="icon-menu" viewBox="0 0 32 32">
<path d="M6.4 11.734v-2.134h19.2v2.134h-19.2zM6.4 17.066h19.2v-2.133h-19.2v2.133zM6.4 22.4h19.2v-2.134h-19.2v2.134z"></path>
</symbol>
<symbol fill="#97d28b" id="icon-Plus" viewBox="0 0 32 32">
<path d="M23.813 14.75h-6.563v-6.563c0-0.688-0.563-1.25-1.25-1.25s-1.25 0.563-1.25 1.25v6.563h-6.563c-0.688 0-1.25 0.563-1.25 1.25s0.563 1.25 1.25 1.25h6.563v6.563c0 0.688 0.563 1.25 1.25 1.25s1.25-0.563 1.25-1.25v-6.563h6.563c0.688 0 1.25-0.563 1.25-1.25s-0.563-1.25-1.25-1.25z"></path>
</symbol>
<symbol id="icon-minus" viewBox="0 0 32 32">
<path d="M7.58 14.568c-0.46 0.152-0.819 0.496-0.988 0.935l-0.004 0.011c-0.053 0.144-0.083 0.31-0.083 0.483 0 0.412 0.173 0.784 0.451 1.046l0.001 0.001c0.49 0.49-0.316 0.45 9.044 0.45s8.554 0.040 9.044-0.45c0.275-0.267 0.446-0.641 0.446-1.055 0-0.579-0.335-1.080-0.821-1.319l-0.009-0.004-0.26-0.132-8.32-0.010c-5.264-0.006-8.386 0.010-8.5 0.044z"></path>
</symbol>
<symbol id="icon-cpu-charge" viewBox="0 0 32 32">
<path d="M10.586 1.68c-0.046 0.015-0.113 0.032-0.18 0.047l-0.018 0.003c-0.178 0.038-0.5 0.312-0.604 0.516-0.060 0.116-0.078 0.396-0.078 1.274 0 0.852-0.016 1.128-0.066 1.142-1.228 0.36-1.74 0.576-2.418 1.018-0.864 0.585-1.546 1.377-1.983 2.307l-0.015 0.035c-0.194 0.406-0.367 0.885-0.494 1.383l-0.012 0.055-0.034 0.184-1.13 0.018c-1.288 0.020-1.424 0.058-1.71 0.462-0.105 0.152-0.168 0.34-0.168 0.543s0.063 0.391 0.17 0.546l-0.002-0.003c0.278 0.392 0.44 0.44 1.564 0.462l0.98 0.018-0.034 0.484c-0.018 0.266-0.034 1.004-0.034 1.642v1.16l-0.946 0.018c-1.086 0.022-1.254 0.072-1.53 0.462-0.13 0.186-0.156 0.272-0.156 0.544s0.026 0.358 0.156 0.544c0.276 0.39 0.444 0.44 1.53 0.462l0.946 0.018v1.16c0 0.638 0.016 1.376 0.034 1.642l0.034 0.484-0.98 0.018c-1.124 0.022-1.286 0.070-1.564 0.462-0.13 0.184-0.156 0.272-0.156 0.544 0 0.27 0.026 0.358 0.156 0.542 0.286 0.404 0.422 0.442 1.71 0.462l1.13 0.018 0.034 0.184c0.018 0.102 0.096 0.37 0.17 0.596 0.712 2.146 2.12 3.466 4.366 4.090l0.426 0.118 0.026 1.168c0.026 1.086 0.036 1.182 0.144 1.356 0.185 0.268 0.491 0.441 0.837 0.441 0.277 0 0.528-0.111 0.711-0.291l-0 0c0.244-0.262 0.282-0.46 0.282-1.464v-0.944l0.52 0.036c0.286 0.018 1.042 0.034 1.68 0.034h1.16v0.968c0 0.928 0.006 0.978 0.128 1.188 0.32 0.546 1.134 0.642 1.562 0.182 0.244-0.26 0.284-0.462 0.284-1.43v-0.908h1.132c0.624 0 1.366-0.016 1.648-0.034l0.516-0.034 0.018 1.006c0.018 0.946 0.026 1.022 0.142 1.208 0.476 0.766 1.632 0.59 1.818-0.276 0.032-0.152 0.058-0.716 0.058-1.254v-0.978l0.19-0.034c0.555-0.141 1.035-0.315 1.492-0.529l-0.050 0.021c1.242-0.58 2.218-1.556 2.783-2.763l0.015-0.035c0.193-0.407 0.367-0.887 0.496-1.385l0.012-0.057 0.034-0.19h0.978c0.538 0 1.102-0.026 1.254-0.058 0.44-0.103 0.762-0.491 0.762-0.956 0-0.27-0.109-0.515-0.287-0.692v0c-0.266-0.266-0.53-0.32-1.584-0.32h-0.832l0.036-0.488c0.018-0.268 0.034-1.012 0.034-1.654v-1.164h0.798c0.438 0 0.92-0.028 1.072-0.060 0.88-0.188 1.044-1.398 0.246-1.82-0.2-0.106-0.32-0.12-1.17-0.138l-0.946-0.020v-1.16c0-0.638-0.016-1.38-0.034-1.648l-0.036-0.488h0.832c0.458 0 0.956-0.026 1.108-0.058 0.88-0.19 1.044-1.398 0.246-1.822-0.206-0.11-0.308-0.12-1.35-0.138l-1.13-0.018-0.034-0.184c-0.139-0.553-0.312-1.032-0.527-1.487l0.021 0.049c-0.592-1.254-1.585-2.239-2.81-2.805l-0.036-0.015c-0.406-0.184-1.364-0.508-1.504-0.508-0.068 0-0.080-0.152-0.080-1-0.002-1.378-0.082-1.65-0.548-1.888-0.135-0.072-0.295-0.114-0.465-0.114-0.343 0-0.645 0.172-0.825 0.435l-0.002 0.003-0.16 0.226-0.036 2.032-0.484-0.034c-0.456-0.022-0.991-0.034-1.528-0.034-0.042 0-0.084 0-0.126 0l0.007-0h-1.164l-0.002-0.814c-0.002-1.176-0.096-1.47-0.546-1.7-0.135-0.072-0.295-0.114-0.465-0.114-0.343 0-0.645 0.172-0.825 0.435l-0.002 0.003-0.16 0.226-0.020 0.982-0.018 0.982h-1.16c-0.638 0-1.38 0.016-1.648 0.034l-0.488 0.036v-0.944c0-1.026-0.038-1.206-0.308-1.488-0.114-0.099-0.249-0.177-0.398-0.224l-0.008-0.002c-0.272-0.080-0.288-0.082-0.38-0.052zM21.254 6.468c0.788 0.144 1.406 0.342 1.998 0.638 0.782 0.39 1.252 0.86 1.642 1.642 0.3 0.602 0.496 1.22 0.642 2.024 0.082 0.454 0.090 1.004 0.090 5.228s-0.008 4.774-0.090 5.228c-0.238 1.314-0.672 2.32-1.264 2.928-0.201 0.204-0.42 0.388-0.655 0.552l-0.015 0.010c-0.69 0.438-1.72 0.748-2.92 0.878-0.698 0.078-8.666 0.078-9.364 0-1.698-0.184-2.928-0.69-3.662-1.5-0.354-0.392-0.776-1.214-0.964-1.882-0.322-1.14-0.318-1.062-0.318-6.214 0-4.224 0.008-4.774 0.090-5.228 0.146-0.804 0.342-1.422 0.642-2.024 0.226-0.456 0.35-0.63 0.68-0.96 0.748-0.744 1.942-1.218 3.494-1.384 0.234-0.026 2.466-0.042 4.96-0.036 3.968 0.010 4.594 0.022 5.014 0.1zM13.21 8.376c-2.16 0.156-3.618 1.012-4.306 2.53-0.222 0.525-0.393 1.137-0.483 1.774l-0.005 0.040c-0.098 0.68-0.098 5.886 0 6.56 0.386 2.654 1.65 3.918 4.304 4.304 0.678 0.098 5.882 0.098 6.56 0 2.654-0.386 3.918-1.65 4.304-4.304 0.098-0.678 0.098-5.882 0-6.56-0.308-2.116-1.166-3.308-2.848-3.956-0.48-0.186-1.258-0.332-2.054-0.39-0.844-0.060-4.612-0.058-5.472 0.002zM19.634 10.492c0.86 0.24 1.344 0.606 1.642 1.24 0.344 0.73 0.35 0.816 0.35 4.268 0 3.476-0.006 3.55-0.368 4.298-0.306 0.634-0.744 0.962-1.62 1.21-0.402 0.116-0.48 0.118-3.638 0.118s-3.236-0.002-3.638-0.118c-0.876-0.248-1.314-0.576-1.62-1.21-0.362-0.748-0.368-0.822-0.368-4.298 0-2.8 0.010-3.162 0.094-3.522 0.292-1.242 0.908-1.806 2.244-2.054 0.294-0.054 1.090-0.068 3.448-0.058 2.954 0.010 3.082 0.016 3.474 0.126zM15.574 12.050c-0.116 0.064-0.216 0.139-0.304 0.224l0-0c-0.134 0.146-1.302 2.172-1.498 2.598-0.087 0.182-0.137 0.396-0.137 0.622 0 0.398 0.157 0.76 0.414 1.026l-0-0c0.294 0.326 0.626 0.444 1.346 0.48 0.334 0.016 0.606 0.038 0.606 0.050 0 0.010-0.214 0.39-0.474 0.844-0.51 0.888-0.576 1.080-0.486 1.412 0.2 0.742 1.152 0.998 1.662 0.448 0.154-0.168 1.314-2.16 1.526-2.624 0.32-0.698 0.028-1.596-0.63-1.93-0.242-0.124-0.756-0.212-1.238-0.212-0.023 0.001-0.050 0.002-0.078 0.002-0.1 0-0.198-0.011-0.291-0.032l0.009 0.002c0-0.014 0.222-0.414 0.492-0.888 0.448-0.788 0.49-0.886 0.488-1.136-0.003-0.156-0.035-0.303-0.091-0.438l0.003 0.008c-0.25-0.484-0.866-0.696-1.318-0.456z"></path>
</symbol>
<symbol id="icon-global-edit" viewBox="0 0 32 32">
<path d="M15.414 1.688c-3.052 0.135-5.832 1.2-8.089 2.916l0.035-0.026c-0.81 0.608-2.188 1.986-2.794 2.796-1.8 2.362-2.884 5.355-2.884 8.601 0 0.304 0.010 0.606 0.028 0.906l-0.002-0.041c0.167 2.955 1.215 5.637 2.883 7.82l-0.025-0.034c0.608 0.818 1.978 2.188 2.808 2.808 1.796 1.363 3.97 2.325 6.337 2.711l0.083 0.011c0.8 0.124 2.126 0.194 2.438 0.128 0.864-0.184 1.020-1.41 0.232-1.812-0.18-0.092-0.37-0.122-1.022-0.156-0.721-0.026-1.406-0.113-2.069-0.256l0.077 0.014c-0.4-0.082-0.488-0.132-0.49-0.28 0-0.040-0.106-0.412-0.236-0.826-0.402-1.282-0.884-3.188-1.018-4.030l-0.038-0.234 0.366 0.036c1.736 0.17 4.040 0.244 4.322 0.136 0.367-0.154 0.62-0.51 0.62-0.925 0-0.004-0-0.008-0-0.012v0.001c0-0.328-0.116-0.552-0.406-0.786l-0.202-0.164-1.558-0.066c-1.364-0.058-3.044-0.186-3.374-0.258-0.102-0.022-0.118-0.094-0.202-0.944-0.114-1.093-0.18-2.362-0.18-3.646 0-0.556 0.012-1.108 0.036-1.658l-0.003 0.078c0.043-0.935 0.1-1.744 0.174-2.548l-0.016 0.212 0.088-0.826 0.852-0.088c1.143-0.127 2.469-0.199 3.812-0.199 1.302 0 2.587 0.068 3.854 0.2l-0.158-0.013c0.88 0.084 0.95 0.1 0.972 0.202 0.072 0.334 0.19 1.898 0.242 3.18 0.032 0.804 0.070 1.542 0.084 1.638 0.030 0.204 0.286 0.514 0.522 0.636 0.128 0.052 0.277 0.082 0.433 0.082 0.154 0 0.301-0.029 0.435-0.083l-0.008 0.003c0.22-0.122 0.394-0.306 0.499-0.529l0.003-0.007c0.108-0.282 0.034-2.586-0.136-4.322l-0.036-0.366 0.234 0.038c0.822 0.132 2.704 0.604 4.022 1.012 0.41 0.126 0.81 0.244 0.886 0.262 0.126 0.028 0.146 0.072 0.224 0.472 0.156 0.792 0.2 1.16 0.246 2.016 0.038 0.728 0.060 0.87 0.162 1.034 0.462 0.748 1.626 0.574 1.806-0.27 0.066-0.312-0.004-1.638-0.128-2.438-0.397-2.451-1.36-4.624-2.75-6.456l0.026 0.036c-0.608-0.812-1.988-2.194-2.792-2.796-1.916-1.46-4.261-2.456-6.815-2.779l-0.071-0.007c-0.59-0.069-1.275-0.108-1.968-0.108-0.131 0-0.261 0.001-0.391 0.004l0.019-0zM17.334 3.734c0.25 0.030 0.722 0.106 1.054 0.166 0.566 0.106 0.602 0.12 0.632 0.252 0.018 0.078 0.136 0.478 0.262 0.888 0.384 1.25 0.84 3.062 1.016 4.048l0.038 0.208-1.482-0.136c-0.91-0.084-4.798-0.084-5.708 0l-1.478 0.136 0.038-0.234c0.132-0.822 0.604-2.704 1.012-4.022 0.126-0.41 0.244-0.81 0.262-0.888 0.030-0.132 0.066-0.146 0.632-0.252 0.332-0.062 0.77-0.134 0.974-0.16 0.424-0.033 0.918-0.052 1.416-0.052 0.469 0 0.933 0.017 1.394 0.049l-0.062-0.004zM21.916 5.18c1.654 0.884 3.268 2.374 4.418 4.078 0.252 0.376 0.782 1.35 0.75 1.382-0.312-0.055-0.579-0.121-0.839-0.203l0.047 0.013c-0.748-0.219-1.837-0.477-2.94-0.695l-0.294-0.049-0.65-0.12-0.116-0.646c-0.182-1.002-0.792-3.568-0.942-3.958-0.044-0.116 0.016-0.096 0.566 0.198zM10.612 5.026c0 0.038-0.096 0.428-0.216 0.868-0.212 0.739-0.461 1.81-0.67 2.895l-0.046 0.285-0.090 0.514-0.648 0.118c-0.834 0.152-2.252 0.478-3.236 0.744-0.208 0.065-0.474 0.131-0.746 0.181l-0.046 0.007c0.081-0.211 0.168-0.39 0.268-0.56l-0.010 0.018c1.030-1.932 2.856-3.778 4.802-4.856 0.522-0.288 0.64-0.328 0.638-0.214zM9.256 12.094l-0.088 0.972c-0.042 0.646-0.072 1.436-0.084 2.232l-0 0.036c-0.030 1.662 0.012 2.866 0.15 4.308 0.034 0.344 0.048 0.642 0.030 0.658-0.078 0.078-2.698-0.544-4.060-0.966-0.001-0.014-0.325-0.113-0.651-0.209l-0.321-0.081-0.22-0.058-0.112-0.6c-0.141-0.661-0.222-1.421-0.222-2.199 0-0.066 0.001-0.131 0.002-0.197l-0 0.010c0-0.95 0.046-1.446 0.22-2.388 0.106-0.566 0.12-0.602 0.252-0.632 0.078-0.018 0.478-0.136 0.888-0.262 1.020-0.314 1.976-0.57 2.96-0.792 1.434-0.32 1.304-0.338 1.256 0.168zM26.34 19.356c-0.672 0.214-0.844 0.364-3.708 3.226-2.924 2.92-2.926 2.92-3.082 3.618-0.142 0.636-0.31 2.080-0.284 2.464 0.020 0.449 0.22 0.848 0.529 1.129l0.001 0.001c0.548 0.524 0.966 0.586 2.52 0.368 1.074-0.15 1.45-0.252 1.83-0.5 0.132-0.086 1.402-1.316 2.824-2.736 2.75-2.744 3.010-3.044 3.216-3.708 0.070-0.226 0.11-0.485 0.11-0.754 0-0.541-0.163-1.045-0.442-1.464l0.006 0.010c-0.358-0.505-0.781-0.934-1.264-1.287l-0.016-0.011c-0.666-0.44-1.542-0.58-2.24-0.356zM27.402 21.328c0.378 0.192 0.918 0.854 0.918 1.124 0 0.184-0.188 0.492-0.466 0.762l-0.26 0.256-0.318-0.206c-0.408-0.277-0.748-0.621-1.012-1.020l-0.008-0.014-0.176-0.28 0.254-0.258c0.278-0.286 0.558-0.46 0.748-0.462 0.119 0.012 0.227 0.047 0.324 0.1l-0.004-0.002zM5.888 21.598c1.052 0.276 2.246 0.548 3.054 0.694l0.648 0.118 0.088 0.514c0.138 0.79 0.426 2.068 0.702 3.116 0.138 0.522 0.234 0.964 0.212 0.986-0.102 0.102-1.6-0.822-2.422-1.492-1.187-0.991-2.175-2.172-2.929-3.503l-0.033-0.063c-0.256-0.474-0.292-0.582-0.186-0.582 0.034 0 0.424 0.096 0.866 0.212zM24.77 23.582c0.15 0.256 0.8 0.918 1.096 1.12 0.101 0.060 0.188 0.128 0.266 0.206v0c0 0.014-0.7 0.728-1.558 1.584l-1.56 1.56-0.868 0.124c-0.24 0.044-0.543 0.082-0.85 0.106l-0.034 0.002c0.026-0.341 0.064-0.644 0.116-0.942l-0.008 0.058 0.124-0.866 1.56-1.56c0.858-0.858 1.572-1.56 1.588-1.56s0.072 0.074 0.128 0.168z"></path>
</symbol>
<symbol id="icon-maximize-circle" viewBox="0 0 32 32">
<path d="M15.414 1.69c-3.052 0.134-5.832 1.198-8.089 2.914l0.035-0.026c-0.81 0.608-2.188 1.986-2.794 2.796-1.641 2.145-2.688 4.822-2.856 7.734l-0.002 0.038c-0.094 1.58 0.124 3.686 0.43 4.114 0.33 0.464 1.074 0.514 1.488 0.1 0.3-0.3 0.338-0.534 0.21-1.28-0.138-0.802-0.194-2.584-0.106-3.36 0.274-2.42 1.264-4.782 2.748-6.558 0.625-0.709 1.289-1.349 2-1.934l0.030-0.024c1.363-1.038 2.982-1.817 4.742-2.233l0.086-0.017c0.809-0.174 1.738-0.274 2.691-0.274 0.834 0 1.65 0.077 2.441 0.223l-0.082-0.013c0.438 0.084 0.762-0.008 1.038-0.298 0.162-0.171 0.261-0.402 0.261-0.656 0-0.294-0.133-0.557-0.341-0.732l-0.001-0.001c-0.224-0.198-0.378-0.244-1.178-0.362-0.546-0.080-2.058-0.194-2.298-0.174l-0.452 0.024zM22.434 3.046c-0.468 0.11-0.746 0.468-0.746 0.964 0 0.26 0.028 0.35 0.156 0.534 0.302 0.426 0.37 0.44 2.152 0.46l1.568 0.016-3.202 3.21c-1.762 1.766-3.234 3.27-3.272 3.344-0.043 0.12-0.068 0.258-0.068 0.402 0 0.011 0 0.021 0 0.032l-0-0.002c0 0.658 0.552 1.082 1.23 0.942 0.246-0.050 0.368-0.166 3.492-3.282l3.236-3.23 0.016 1.596c0.016 1.56 0.020 1.598 0.142 1.794 0.476 0.766 1.63 0.59 1.816-0.276 0.040-0.18 0.060-1.21 0.060-2.994 0-2.334-0.012-2.748-0.084-2.916-0.097-0.25-0.285-0.446-0.524-0.55l-0.006-0.002c-0.2-0.092-0.398-0.098-2.986-0.094-1.526 0.002-2.866 0.026-2.98 0.052zM28.78 12.386c-0.318 0.112-0.561 0.363-0.66 0.679l-0.002 0.007c-0.048 0.192-0.040 0.35 0.046 0.848 0.138 0.802 0.194 2.584 0.106 3.36-0.326 2.925-1.621 5.499-3.551 7.441l0.001-0.001c-2 1.998-4.6 3.242-7.426 3.548-0.772 0.084-2.52 0.040-3.24-0.082-0.906-0.154-1.158-0.116-1.478 0.222-0.162 0.171-0.261 0.403-0.261 0.658s0.099 0.487 0.261 0.658l-0-0c0.222 0.234 0.38 0.294 1.088 0.408 0.7 0.121 1.505 0.19 2.327 0.19 3.258 0 6.262-1.085 8.671-2.914l-0.036 0.026c1.046-0.841 1.967-1.762 2.781-2.773l0.027-0.035c2.056-2.754 3.062-6.062 2.858-9.412-0.080-1.32-0.232-2.196-0.43-2.474-0.21-0.296-0.7-0.456-1.082-0.354zM11.734 19.052c-0.226 0.048-0.428 0.238-3.48 3.284l-3.24 3.236-0.002-1.44c-0.002-1.492-0.034-1.802-0.218-2.062-0.25-0.35-0.854-0.48-1.258-0.272-0.144 0.087-0.264 0.198-0.36 0.329l-0.002 0.003-0.16 0.226-0.018 2.862c-0.010 1.954 0.002 2.924 0.042 3.060 0.093 0.283 0.295 0.509 0.554 0.633l0.006 0.003c0.2 0.090 0.412 0.098 2.946 0.098 1.798 0 2.824-0.018 3.006-0.058 0.882-0.188 1.044-1.396 0.246-1.822-0.214-0.114-0.288-0.12-1.792-0.136l-1.568-0.016 3.23-3.238c3.116-3.122 3.232-3.244 3.282-3.49 0.162-0.78-0.43-1.364-1.214-1.2z"></path>
</symbol>
<symbol id="icon-ranking" viewBox="0 0 32 32">
<path d="M15.316 1.39c-0.452 0.226-0.66 0.486-1.156 1.44l-0.426 0.822-0.694 0.116c-0.363 0.057-0.674 0.126-0.977 0.212l0.057-0.014c-0.738 0.268-1.208 0.976-1.11 1.676 0.064 0.466 0.308 0.862 0.932 1.516l0.582 0.61-0.154 0.688c-0.188 0.832-0.198 1.242-0.044 1.656 0.232 0.618 0.742 0.98 1.384 0.98 0.498 0.002 0.784-0.1 1.568-0.562l0.692-0.406 0.214 0.11c0.12 0.060 0.444 0.244 0.722 0.406 0.636 0.372 0.96 0.47 1.466 0.444 0.314-0.016 0.432-0.048 0.644-0.18 0.732-0.452 0.898-1.164 0.588-2.52l-0.15-0.656 0.612-0.626c0.658-0.67 0.792-0.876 0.892-1.356 0.020-0.091 0.031-0.196 0.031-0.303 0-0.305-0.092-0.589-0.251-0.824l0.003 0.005c-0.31-0.468-0.728-0.69-1.588-0.842-0.727-0.113-0.978-0.159-1.229-0.205l0.488 0.075c-0.162-0.028-0.198-0.082-0.584-0.84-0.624-1.234-1.034-1.586-1.858-1.586-0.012-0-0.027-0.001-0.041-0.001-0.226 0-0.438 0.061-0.621 0.168l0.006-0.003zM16.314 4.24c0.534 1.040 0.786 1.212 2.102 1.438l0.204 0.034-0.426 0.45c-0.702 0.742-0.856 1.238-0.658 2.118 0.058 0.256 0.096 0.466 0.086 0.466-0.012 0-0.23-0.12-0.488-0.268-0.54-0.31-0.728-0.37-1.138-0.372-0.4 0-0.688 0.096-1.19 0.394-0.125 0.083-0.268 0.162-0.418 0.227l-0.018 0.007c0.022-0.189 0.053-0.357 0.094-0.521l-0.006 0.027c0.186-0.87 0.036-1.34-0.658-2.038-0.238-0.242-0.424-0.45-0.41-0.464 0.014-0.012 0.252-0.064 0.53-0.112 0.6-0.104 1.042-0.318 1.312-0.634 0.102-0.12 0.31-0.462 0.464-0.764 0.099-0.213 0.201-0.393 0.314-0.564l-0.010 0.016c0.014 0.002 0.156 0.252 0.314 0.56zM13.728 12.376c-0.762 0.094-1.464 0.44-2.052 1.010-0.454 0.444-0.76 0.92-0.94 1.464-0.132 0.402-0.144 0.506-0.164 1.612l-0.022 1.184-2.916 0.022c-3.238 0.024-3.154 0.016-3.954 0.402-0.308 0.15-0.512 0.304-0.886 0.676-0.552 0.548-0.804 0.954-0.99 1.6l-0.124 0.428v8.87l0.16 0.226c0.101 0.137 0.225 0.25 0.368 0.335l0.006 0.003 0.212 0.112 13.414 0.014c9.626 0.010 13.494-0.002 13.698-0.044 0.195-0.033 0.363-0.128 0.487-0.263l0.001-0.001c0.32-0.318 0.334-0.466 0.308-3.058-0.022-2.13-0.030-2.268-0.142-2.648-0.186-0.626-0.442-1.036-0.986-1.574-0.374-0.372-0.578-0.526-0.886-0.676-0.8-0.386-0.714-0.378-3.96-0.402l-2.92-0.022v-2.986c0-2.498-0.014-3.052-0.084-3.396-0.294-1.341-1.281-2.395-2.558-2.781l-0.026-0.007c-0.378-0.114-0.504-0.12-2.532-0.134-0.201-0.003-0.439-0.005-0.677-0.005-0.645 0-1.288 0.014-1.926 0.043l0.091-0.003zM18.55 14.53c0.574 0.318 0.846 0.798 0.898 1.584 0.018 0.274 0.014 3.134-0.008 6.352l-0.040 5.854h-6.814l-0.012-4.866c-0.024-8.41-0.032-7.818 0.1-8.1 0.18-0.375 0.474-0.671 0.835-0.851l0.011-0.005 0.32-0.154 4.426 0.030 0.284 0.156zM10.56 24v4.32h-6.88v-3.652c0-4.2-0.022-3.99 0.488-4.5 0.494-0.494 0.398-0.482 3.606-0.486l2.786-0.002v4.32zM27.272 23.788c0.423 0.186 0.754 0.517 0.935 0.928l0.005 0.012c0.1 0.268 0.108 0.412 0.108 1.94v1.652h-6.88v-4.64h2.772c2.654 0 2.782 0.004 3.060 0.108z"></path>
</symbol>
   </defs>
</svg>

